<?xml version="1.0" encoding="utf-8"?>
<!-- Generator: Adobe Illustrator 25.0.0, SVG Export Plug-In . SVG Version: 6.00 Build 0)  -->
<svg height="36" version="1.1" id="Layer_1" xmlns="http://www.w3.org/2000/svg" xmlns:xlink="http://www.w3.org/1999/xlink" x="0px" y="0px"
	 viewBox="0 0 122.5 46.6" style="enable-background:new 0 0 122.5 46.6;" xml:space="preserve">
<style type="text/css">
	.st0{fill-rule:evenodd;clip-rule:evenodd;fill:#6A6F82;}
</style>
<g>
	<path class="st0" d="M75.9,38.8C69,43.9,59,46.6,50.3,46.6c-12.2,0-23.1-4.5-31.4-12c-0.6-0.6-0.1-1.4,0.7-0.9
		c8.9,5.2,20,8.3,31.4,8.3c7.7,0,16.2-1.6,24-4.9C76.1,36.7,77.1,37.9,75.9,38.8L75.9,38.8z"/>
	<path class="st0" d="M78.8,35.4c-0.9-1.1-5.9-0.5-8.1-0.3c-0.7,0.1-0.8-0.5-0.2-0.9c4-2.8,10.5-2,11.2-1c0.8,0.9-0.2,7.5-3.9,10.6
		c-0.6,0.5-1.1,0.2-0.9-0.4C77.8,41.3,79.7,36.6,78.8,35.4z"/>
	<path class="st0" d="M70.9,14.5v-2.7c0-0.4,0.3-0.7,0.7-0.7h12.2c0.4,0,0.7,0.3,0.7,0.7v2.3c0,0.4-0.3,0.9-0.9,1.7l-6.3,9
		c2.3,0,4.8,0.3,6.9,1.5c0.5,0.3,0.6,0.7,0.6,1v2.9c0,0.4-0.4,0.9-0.9,0.6c-3.7-2-8.7-2.2-12.8,0c-0.4,0.2-0.9-0.2-0.9-0.6v-2.8
		c0-0.4,0-1.2,0.5-1.8L78,15.2h-6.3C71.2,15.2,70.9,14.9,70.9,14.5L70.9,14.5z M26.5,31.5h-3.7c-0.3,0-0.6-0.3-0.7-0.6v-19
		c0-0.4,0.3-0.7,0.7-0.7h3.4c0.4,0,0.6,0.3,0.7,0.6v2.5H27c0.9-2.4,2.6-3.5,4.9-3.5s3.8,1.1,4.8,3.5c0.9-2.4,2.9-3.5,5.1-3.5
		c1.6,0,3.2,0.6,4.3,2.1c1.2,1.6,0.9,3.9,0.9,6v12c0,0.4-0.3,0.7-0.7,0.7h-3.7c-0.4,0-0.7-0.3-0.7-0.7V20.8c0-0.8,0.1-2.8-0.1-3.6
		c-0.2-1.3-1-1.6-2.1-1.6c-0.9,0-1.8,0.6-2.2,1.6s-0.3,2.6-0.3,3.7V31c0,0.4-0.3,0.7-0.7,0.7h-3.7c-0.4,0-0.7-0.3-0.7-0.7V20.8
		c0-2.1,0.3-5.2-2.3-5.2s-2.6,3-2.6,5.2v10.1C27.2,31.2,26.9,31.5,26.5,31.5L26.5,31.5z M94.9,10.8c5.5,0,8.5,4.7,8.5,10.7
		c0,5.8-3.3,10.4-8.5,10.4c-5.4,0-8.3-4.7-8.3-10.6S89.5,10.8,94.9,10.8L94.9,10.8z M94.9,14.7c-2.7,0-2.9,3.7-2.9,6s0,7.3,2.9,7.3
		s3-4,3-6.4c0-1.6-0.1-3.5-0.5-5C96.9,15.2,96.1,14.7,94.9,14.7L94.9,14.7z M110.5,31.5h-3.7c-0.4,0-0.7-0.3-0.7-0.7v-19
		c0-0.3,0.3-0.6,0.7-0.6h3.4c0.3,0,0.6,0.3,0.7,0.5v2.9h0.1c1-2.6,2.5-3.8,5-3.8c1.6,0,3.3,0.6,4.3,2.2c1,1.5,1,4.1,1,5.9v12
		c0,0.3-0.3,0.6-0.7,0.6h-3.7c-0.3,0-0.6-0.3-0.7-0.6V20.5c0-2.1,0.3-5.1-2.3-5.1c-0.9,0-1.7,0.6-2.1,1.5c-0.5,1.2-0.6,2.3-0.6,3.6
		v10.2C111.2,31.2,110.9,31.5,110.5,31.5L110.5,31.5z M61.2,22.4c0,1.4,0,2.6-0.7,3.9c-0.6,1-1.5,1.7-2.6,1.7
		c-1.4,0-2.3-1.1-2.3-2.7c0-3.1,2.8-3.7,5.5-3.7L61.2,22.4L61.2,22.4z M64.9,31.4c-0.3,0.2-0.6,0.3-0.9,0.1c-1.2-1-1.5-1.5-2.1-2.5
		c-2,2.1-3.5,2.7-6.1,2.7c-3.1,0-5.5-1.9-5.5-5.7c0-3,1.6-5,3.9-6c2-0.9,4.8-1,7-1.3v-0.5c0-0.9,0.1-1.9-0.5-2.7
		c-0.5-0.7-1.3-1-2.1-1c-1.4,0-2.7,0.7-3,2.2c-0.1,0.3-0.3,0.7-0.6,0.7L51.4,17c-0.3-0.1-0.6-0.3-0.5-0.8c0.9-4.3,4.8-5.6,8.3-5.6
		c1.8,0,4.2,0.5,5.6,1.8c1.8,1.7,1.6,3.9,1.6,6.4v5.8c0,1.7,0.7,2.5,1.4,3.4c0.3,0.3,0.3,0.8,0,1C67,29.6,65.7,30.8,64.9,31.4
		L64.9,31.4z M12.7,22.4c0,1.4,0,2.6-0.7,3.9c-0.6,1-1.5,1.7-2.6,1.7c-1.4,0-2.3-1.1-2.3-2.7c0-3.1,2.8-3.7,5.5-3.7v0.8H12.7z
		 M16.4,31.4c-0.3,0.2-0.6,0.3-0.9,0.1c-1.2-1-1.5-1.5-2.1-2.5c-2,2.1-3.5,2.7-6.1,2.7c-3.1,0-5.5-1.9-5.5-5.7c0-3,1.6-5,3.9-6
		c2-0.9,4.8-1,7-1.3v-0.5c0-0.9,0.1-1.9-0.5-2.7c-0.5-0.7-1.3-1-2.1-1c-1.4,0-2.7,0.7-3,2.2c0,0.4-0.2,0.7-0.6,0.7L3,17
		c-0.3-0.1-0.6-0.3-0.6-0.7c0.9-4.4,4.8-5.7,8.3-5.7c1.8,0,4.2,0.5,5.6,1.8c1.8,1.7,1.6,3.9,1.6,6.4v5.8c0,1.7,0.7,2.5,1.4,3.4
		c0.3,0.3,0.3,0.8,0,1C18.5,29.6,17.2,30.8,16.4,31.4L16.4,31.4z"/>
</g>
</svg>
