<svg id="Layer_1" data-name="Layer 1" xmlns="http://www.w3.org/2000/svg" viewBox="0 0 900.5 203.7"><defs><style>.cls-1{fill:#46b18f;}.cls-2{fill:#fff;}</style></defs><path class="cls-1" d="M305.75,154.47H265.38l-5.64,12.71H237.18l41.4-92.83H293.7l39.86,92.83H311.39Zm-7.82-18.14L285.5,106.48l-11.79,29.85Z" transform="translate(-16.93 -17.43)"/><path class="cls-1" d="M416.73,110.91v2.14c-1,19.14-15.38,34.42-32.81,34.42H366.75v19.71H346.37V74.35h40.5c17.17,0,29,16.28,29.86,34.42Zm-20.63,0c0-7.57-5.38-13.71-12.18-13.85H366.75v27.7h16.92C390.59,124.76,396.1,118.62,396.1,110.91Z" transform="translate(-16.93 -17.43)"/><path class="cls-1" d="M501.19,110.91v2.14c-1,19.14-15.38,34.42-32.81,34.42H451.2v19.71H430.83V74.35h40.5c17.17,0,29,16.28,29.86,34.42Zm-20.64,0c0-7.57-5.38-13.71-12.17-13.85H451.2v27.7h16.92C475,124.76,480.55,118.62,480.55,110.91Z" transform="translate(-16.93 -17.43)"/><path class="cls-1" d="M594,74.35v45.56c0,29.84-18.71,49.69-42.29,49.69s-42.42-19.85-42.42-49.69V74.35h20.37v45.56c0,14.56,9.23,26.7,22,26.7s21.91-12.14,21.91-26.7V74.35Z" transform="translate(-16.93 -17.43)"/><path class="cls-1" d="M696,74.35v92.83H676l-41.52-55.56v55.56h-20V74.35h20L676,132.19V74.35Z" transform="translate(-16.93 -17.43)"/><path class="cls-1" d="M731.86,74.35v92.83h-20V74.35Z" transform="translate(-16.93 -17.43)"/><path class="cls-1" d="M777.87,156.32A15.33,15.33,0,0,1,773.38,167a14.9,14.9,0,0,1-10.63,4.43A14.72,14.72,0,0,1,752.11,167a14.42,14.42,0,0,1-4.61-10.71,15,15,0,0,1,4.61-11A15.18,15.18,0,0,1,762.75,141a15.37,15.37,0,0,1,10.63,4.29A16,16,0,0,1,777.87,156.32Z" transform="translate(-16.93 -17.43)"/><path class="cls-1" d="M812,74.35v92.83H792V74.35Z" transform="translate(-16.93 -17.43)"/><path class="cls-1" d="M917.43,120.91c0,27-19.61,48.84-43.83,48.84s-44-21.85-44-48.84,19.61-49,44-49S917.43,93.92,917.43,120.91Zm-19.22,0c0-15.14-11-27.57-24.61-27.57s-24.73,12.43-24.73,27.57,11,27.41,24.73,27.41S898.21,136,898.21,120.91Z" transform="translate(-16.93 -17.43)"/><rect class="cls-1" width="203.7" height="203.7" rx="56.75"/><path class="cls-2" d="M90.31,81.5l.06.06a13.4,13.4,0,0,1-.05,18.91l-9.15,9.15a13.39,13.39,0,0,0,0,18.92l9.2,9.26a13.4,13.4,0,0,1,0,18.92h0a13.4,13.4,0,0,1-19,0L43.18,128.54a13.4,13.4,0,0,1,0-18.95L71.32,81.46A13.4,13.4,0,0,1,90.31,81.5Z" transform="translate(-16.93 -17.43)"/><path class="cls-2" d="M141.83,72.85l-20.35,97.31a11.8,11.8,0,0,1-11.55,9.39h-.27A11.8,11.8,0,0,1,98.12,165.3L118.74,68a11.8,11.8,0,0,1,11.54-9.36h0A11.8,11.8,0,0,1,141.83,72.85Z" transform="translate(-16.93 -17.43)"/><path class="cls-2" d="M148.52,156.68l-.05-.06a13.39,13.39,0,0,1,0-18.9l9.16-9.16a13.41,13.41,0,0,0,0-18.92l-9.2-9.26a13.4,13.4,0,0,1,0-18.92h0a13.4,13.4,0,0,1,18.95,0l28.18,28.18a13.4,13.4,0,0,1,0,19l-28.13,28.13A13.41,13.41,0,0,1,148.52,156.68Z" transform="translate(-16.93 -17.43)"/></svg>